<svg width="394" height="109" viewBox="0 0 394 109" fill="none" xmlns="http://www.w3.org/2000/svg">
<path d="M50.5136 7.84668C36.9136 30.6467 56.1803 52.3467 67.5136 60.3467H84.0137C68.5137 45.8467 69.5137 27.8467 71.5137 20.8467C73.1137 15.2467 72.1803 9.84668 71.5137 7.84668C65.5137 -4.55332 55.0136 2.68001 50.5136 7.84668Z" fill="url(#paint0_linear_2598_1887)" stroke="url(#paint1_linear_2598_1887)" stroke-width="2"/>
<path d="M51.0139 49.3467C46.6139 43.7467 44.8472 37.68 44.5139 35.3467C42.914 53.7467 19.8473 65.68 8.51388 69.3467C2.11388 72.5467 0.847212 78.3467 1.01388 80.8467C1.81388 92.8467 14.6805 93.5133 21.0139 92.3467C45.8139 84.3467 51.3472 60.3467 51.0139 49.3467Z" fill="url(#paint2_radial_2598_1887)" stroke="url(#paint3_linear_2598_1887)" stroke-width="2"/>
<path d="M50.4755 70.9568C47.9706 77.6235 43.7007 82.2811 41.8788 83.7765C58.4391 75.5988 80.6075 89.1282 89.6216 96.9151C95.6775 100.726 101.293 98.8004 103.344 97.361C113.188 90.4518 107.083 79.1061 102.8 74.2969C83.0951 57.2452 59.7066 64.9653 50.4755 70.9568Z" fill="url(#paint4_radial_2598_1887)" stroke="url(#paint5_linear_2598_1887)" stroke-width="2"/>
<path d="M133.316 53.86C134.108 54.46 134.744 55.3 135.224 56.38C135.704 57.46 135.944 58.54 135.944 59.62C135.944 60.988 135.596 62.26 134.9 63.436C134.228 64.588 133.292 65.488 132.092 66.136C130.82 66.88 129.332 67.252 127.628 67.252C125.876 67.252 124.244 66.856 122.732 66.064C121.22 65.272 120.14 64.168 119.492 62.752L122.48 60.16C122.984 61.36 123.608 62.212 124.352 62.716C125.12 63.22 126.092 63.472 127.268 63.472C127.628 63.472 127.904 63.46 128.096 63.436C129.248 63.34 130.184 62.908 130.904 62.14C131.624 61.348 131.984 60.46 131.984 59.476C131.984 58.516 131.624 57.64 130.904 56.848C130.448 56.392 130.028 56.116 129.644 56.02C129.26 55.9 128.588 55.804 127.628 55.732C127.412 55.732 126.896 55.708 126.08 55.66C124.784 55.564 123.584 55.168 122.48 54.472C121.376 53.776 120.488 52.864 119.816 51.736C119.168 50.608 118.844 49.384 118.844 48.064C118.964 46.504 119.324 45.196 119.924 44.14C120.548 43.06 121.472 42.184 122.696 41.512C124.112 40.744 125.6 40.36 127.16 40.36C128.744 40.36 130.244 40.744 131.66 41.512C133.1 42.256 134.276 43.324 135.188 44.716L132.272 47.272C131.768 46.264 131.048 45.484 130.112 44.932C129.2 44.38 128.228 44.104 127.196 44.104C126.02 44.104 125 44.464 124.136 45.184C123.704 45.568 123.368 46.024 123.128 46.552C122.912 47.056 122.804 47.584 122.804 48.136C122.804 49.192 123.164 50.08 123.884 50.8C124.508 51.472 125.156 51.904 125.828 52.096C126.524 52.264 127.436 52.372 128.564 52.42C129.62 52.444 130.508 52.54 131.228 52.708C131.948 52.876 132.644 53.26 133.316 53.86ZM145.081 56.884V63.148H156.817V66.928H141.265V40.648H156.565V44.32H145.081V53.284H155.413V56.884H145.081ZM176.036 52.78C177.164 53.38 178.124 54.28 178.916 55.48C179.708 56.68 180.104 57.94 180.104 59.26C180.104 60.292 179.9 61.276 179.492 62.212C179.108 63.148 178.556 63.976 177.836 64.696C177.116 65.416 176.288 65.98 175.352 66.388C174.44 66.796 173.456 67 172.4 67H162.14L162.104 40.864H171.788C172.7 40.864 173.576 41.044 174.416 41.404C175.256 41.74 175.988 42.22 176.612 42.844C177.26 43.492 177.752 44.236 178.088 45.076C178.448 45.892 178.628 46.768 178.628 47.704C178.628 48.832 178.364 49.828 177.836 50.692C177.356 51.484 176.756 52.18 176.036 52.78ZM165.884 51.7H171.248C172.232 51.7 173.084 51.34 173.804 50.62C174.5 49.924 174.848 49.084 174.848 48.1C174.848 47.068 174.5 46.204 173.804 45.508C173.132 44.812 172.28 44.464 171.248 44.464H165.884V51.7ZM171.752 63.616C172.328 63.616 172.88 63.496 173.408 63.256C173.96 63.016 174.44 62.692 174.848 62.284C175.256 61.876 175.568 61.42 175.784 60.916C176 60.388 176.108 59.836 176.108 59.26C176.108 58.66 176 58.096 175.784 57.568C175.568 57.04 175.256 56.572 174.848 56.164C174.44 55.756 173.972 55.444 173.444 55.228C172.916 55.012 172.352 54.904 171.752 54.904H165.992V63.616H171.752ZM189.256 56.884V63.148H200.992V66.928H185.44V40.648H200.74V44.32H189.256V53.284H199.588V56.884H189.256ZM209.95 50.836V67.072H206.314V40.18L223.378 60.592V40.648H227.014V67.072H223.45L209.95 50.836ZM249.132 40.648H249.168L238.8 63.256H249.132V63.292V67.036V67.072L232.356 67.036L242.616 44.32H233.796V40.648V40.612H249.168L249.132 40.648ZM258.42 66.964H254.496L264.54 40.576L276.024 66.964H272.1L271.308 64.696L259.248 64.768L258.42 66.964ZM264.648 49.432L260.436 61.456L269.868 61.384L264.648 49.432Z" fill="#434343"/>
<path d="M300.48 50.836V67.072H296.844V40.18L313.908 60.592V40.648H317.544V67.072H313.98L300.48 50.836ZM324.65 66.964H320.726L330.77 40.576L342.254 66.964H338.33L337.538 64.696L325.478 64.768L324.65 66.964ZM330.878 49.432L326.666 61.456L336.098 61.384L330.878 49.432ZM345.417 44.284V40.612H362.265V44.284H355.605V66.964H351.789V44.284H345.417ZM379.544 40.612H383.396V66.964H379.544V58.792H369.284V66.964H365.432V40.612H369.284V55.336V55.408H379.544V55.336V40.612ZM386.573 67V40.612H390.425V67H386.573Z" fill="#E35E01"/>
<path d="M120.632 80V72.7273H123.501C124.051 72.7273 124.519 72.8255 124.908 73.022C125.298 73.2161 125.595 73.492 125.799 73.8494C126.005 74.2045 126.108 74.6224 126.108 75.103C126.108 75.5859 126.004 76.0014 125.795 76.3494C125.587 76.6951 125.285 76.9602 124.89 77.1449C124.497 77.3295 124.021 77.4219 123.462 77.4219H121.541V76.1861H123.214C123.507 76.1861 123.751 76.1458 123.945 76.0653C124.139 75.9848 124.284 75.8641 124.379 75.7031C124.476 75.5421 124.524 75.3421 124.524 75.103C124.524 74.8615 124.476 74.6579 124.379 74.4922C124.284 74.3265 124.138 74.201 123.942 74.1158C123.748 74.0282 123.503 73.9844 123.207 73.9844H122.17V80H120.632ZM124.56 76.6903L126.367 80H124.67L122.901 76.6903H124.56Z" fill="#E35E01"/>
<path d="M156.632 80V72.7273H161.533V73.995H158.17V75.728H161.281V76.9957H158.17V78.7322H161.547V80H156.632Z" fill="#E35E01"/>
<path d="M196.049 75.2734H194.494C194.465 75.0722 194.407 74.8935 194.32 74.7372C194.232 74.5786 194.12 74.4437 193.982 74.3324C193.845 74.2211 193.686 74.1359 193.506 74.0767C193.329 74.0175 193.136 73.9879 192.928 73.9879C192.551 73.9879 192.223 74.0814 191.944 74.2685C191.665 74.4531 191.448 74.723 191.294 75.0781C191.14 75.4309 191.063 75.8594 191.063 76.3636C191.063 76.8821 191.14 77.3177 191.294 77.6705C191.45 78.0232 191.668 78.2895 191.947 78.4695C192.227 78.6494 192.55 78.7393 192.917 78.7393C193.123 78.7393 193.313 78.7121 193.489 78.6577C193.666 78.6032 193.824 78.5239 193.961 78.4197C194.098 78.3132 194.212 78.1842 194.302 78.0327C194.394 77.8812 194.458 77.7083 194.494 77.5142L196.049 77.5213C196.009 77.8551 195.908 78.1771 195.747 78.4872C195.589 78.795 195.374 79.0708 195.104 79.3146C194.837 79.5561 194.517 79.7479 194.146 79.8899C193.776 80.0296 193.358 80.0994 192.892 80.0994C192.243 80.0994 191.663 79.9527 191.152 79.6591C190.643 79.3655 190.241 78.9406 189.945 78.3842C189.651 77.8279 189.504 77.1544 189.504 76.3636C189.504 75.5705 189.653 74.8958 189.952 74.3395C190.25 73.7831 190.655 73.3594 191.166 73.0682C191.678 72.7746 192.253 72.6278 192.892 72.6278C193.313 72.6278 193.704 72.687 194.064 72.8054C194.426 72.9238 194.747 73.0966 195.026 73.3239C195.306 73.5488 195.533 73.8246 195.708 74.1513C195.886 74.478 195.999 74.852 196.049 75.2734Z" fill="#E35E01"/>
<path d="M220.206 72.7273H221.928L223.587 75.8594H223.658L225.316 72.7273H227.038L224.386 77.429V80H222.859V77.429L220.206 72.7273Z" fill="#E35E01"/>
<path d="M267.049 75.2734H265.494C265.465 75.0722 265.407 74.8935 265.32 74.7372C265.232 74.5786 265.12 74.4437 264.982 74.3324C264.845 74.2211 264.686 74.1359 264.506 74.0767C264.329 74.0175 264.136 73.9879 263.928 73.9879C263.551 73.9879 263.223 74.0814 262.944 74.2685C262.665 74.4531 262.448 74.723 262.294 75.0781C262.14 75.4309 262.063 75.8594 262.063 76.3636C262.063 76.8821 262.14 77.3177 262.294 77.6705C262.45 78.0232 262.668 78.2895 262.947 78.4695C263.227 78.6494 263.55 78.7393 263.917 78.7393C264.123 78.7393 264.313 78.7121 264.489 78.6577C264.666 78.6032 264.824 78.5239 264.961 78.4197C265.098 78.3132 265.212 78.1842 265.302 78.0327C265.394 77.8812 265.458 77.7083 265.494 77.5142L267.049 77.5213C267.009 77.8551 266.908 78.1771 266.747 78.4872C266.589 78.795 266.374 79.0708 266.104 79.3146C265.837 79.5561 265.517 79.7479 265.146 79.8899C264.776 80.0296 264.358 80.0994 263.892 80.0994C263.243 80.0994 262.663 79.9527 262.152 79.6591C261.643 79.3655 261.241 78.9406 260.945 78.3842C260.651 77.8279 260.504 77.1544 260.504 76.3636C260.504 75.5705 260.653 74.8958 260.952 74.3395C261.25 73.7831 261.655 73.3594 262.166 73.0682C262.678 72.7746 263.253 72.6278 263.892 72.6278C264.313 72.6278 264.704 72.687 265.064 72.8054C265.426 72.9238 265.747 73.0966 266.026 73.3239C266.306 73.5488 266.533 73.8246 266.708 74.1513C266.886 74.478 266.999 74.852 267.049 75.2734Z" fill="#E35E01"/>
<path d="M292.632 80V72.7273H294.17V78.7322H297.288V80H292.632Z" fill="#E35E01"/>
<path d="M325.17 72.7273V80H323.632V72.7273H325.17Z" fill="#E35E01"/>
<path d="M355.715 72.7273V80H354.387L351.223 75.4226H351.17V80H349.632V72.7273H350.982L354.121 77.3011H354.185V72.7273H355.715Z" fill="#E35E01"/>
<path d="M388.455 75.0781C388.405 74.9053 388.335 74.7526 388.245 74.62C388.155 74.4851 388.045 74.3714 387.915 74.2791C387.787 74.1844 387.64 74.1122 387.474 74.0625C387.311 74.0128 387.13 73.9879 386.931 73.9879C386.559 73.9879 386.233 74.0803 385.951 74.2649C385.672 74.4496 385.454 74.7183 385.298 75.071C385.141 75.4214 385.063 75.8499 385.063 76.3565C385.063 76.8632 385.14 77.294 385.294 77.6491C385.448 78.0043 385.666 78.2753 385.947 78.4624C386.229 78.647 386.562 78.7393 386.945 78.7393C387.293 78.7393 387.59 78.6778 387.837 78.5547C388.085 78.4292 388.275 78.2528 388.405 78.0256C388.537 77.7983 388.604 77.5296 388.604 77.2195L388.916 77.2656H387.041V76.108H390.085V77.0241C390.085 77.6634 389.95 78.2126 389.68 78.6719C389.41 79.1288 389.038 79.4815 388.565 79.7301C388.091 79.9763 387.549 80.0994 386.938 80.0994C386.256 80.0994 385.657 79.9491 385.141 79.6484C384.625 79.3454 384.223 78.9157 383.934 78.3594C383.647 77.8007 383.504 77.1378 383.504 76.3707C383.504 75.7812 383.589 75.2557 383.76 74.794C383.933 74.33 384.174 73.937 384.484 73.6151C384.795 73.2931 385.156 73.0481 385.567 72.88C385.979 72.7119 386.426 72.6278 386.906 72.6278C387.318 72.6278 387.702 72.6882 388.057 72.8089C388.412 72.9273 388.727 73.0954 389.001 73.3132C389.278 73.531 389.504 73.7902 389.68 74.0909C389.855 74.3892 389.967 74.7183 390.017 75.0781H388.455Z" fill="#E35E01"/>
<defs>
<linearGradient id="paint0_linear_2598_1887" x1="46" y1="26.5" x2="75.5" y2="35" gradientUnits="userSpaceOnUse">
<stop offset="0.0732507" stop-color="#FA9D21"/>
<stop offset="1" stop-color="#F04124"/>
</linearGradient>
<linearGradient id="paint1_linear_2598_1887" x1="76" y1="44.5" x2="53" y2="46" gradientUnits="userSpaceOnUse">
<stop stop-color="#F05023"/>
<stop offset="1" stop-color="#FBA519"/>
</linearGradient>
<radialGradient id="paint2_radial_2598_1887" cx="0" cy="0" r="1" gradientUnits="userSpaceOnUse" gradientTransform="translate(14.5 80) rotate(-28.1786) scale(47.6471 41.5242)">
<stop stop-color="#FBAC22"/>
<stop offset="1" stop-color="#EF4122"/>
</radialGradient>
<linearGradient id="paint3_linear_2598_1887" x1="13" y1="68.5" x2="27.5" y2="93" gradientUnits="userSpaceOnUse">
<stop stop-color="#F0532B"/>
<stop offset="1" stop-color="#FBAA19"/>
</linearGradient>
<radialGradient id="paint4_radial_2598_1887" cx="0" cy="0" r="1" gradientUnits="userSpaceOnUse" gradientTransform="translate(95.6239 86.2708) rotate(-149.429) scale(47.6471 41.5242)">
<stop stop-color="#FBAC22"/>
<stop offset="1" stop-color="#EF4122"/>
</radialGradient>
<linearGradient id="paint5_linear_2598_1887" x1="86.5705" y1="93.5191" x2="99.9937" y2="68.4129" gradientUnits="userSpaceOnUse">
<stop stop-color="#F0532B"/>
<stop offset="1" stop-color="#FBAA19"/>
</linearGradient>
</defs>
</svg>
